<svg xmlns="http://www.w3.org/2000/svg" viewBox="0 0 886 738" role="img" aria-label="JOB & DUES"><rect width="886" height="738" fill="#fff"/><g fill="#ddbf82"><path d="M332 0h222v706H332V184h134v16h-58v492h160c82 0 138-60 138-148V330c0-64-30-110-92-136v-7c75 18 128 80 128 161v204c0 122-84 186-198 186H332z" opacity=".92"/><path d="M184 331 260 258v289c-74-20-124-80-124-151 0-35 14-67 48-95z" opacity=".92"/></g><text x="8" y="438" fill="#2b2b2d" font-family="Brush Script MT, Segoe Script, Lucida Handwriting, cursive" font-size="128" font-style="italic" transform="rotate(-7 8 438)">Job &amp; Dues</text></svg>