<svg xmlns="http://www.w3.org/2000/svg" viewBox="0 0 900 360" role="img" aria-label="JOB & DUES"><rect width="900" height="360" fill="#fff"/><g fill="#ddbf82" opacity=".92"><path d="M250 82h74v204h-74z"/><path d="M560 82h74v204h-74z"/><path d="M323 82h142c78 0 138 56 138 123s-60 123-138 123H323v-58h134c42 0 72-29 72-65s-30-65-72-65H323z"/><path d="M180 178c0 72 48 132 115 151v-64c-31-16-52-48-52-87s21-71 52-87V27c-67 19-115 79-115 151z"/></g><text x="82" y="213" fill="#2b2b2d" font-family="Georgia, 'Times New Roman', serif" font-size="92" font-style="italic">Job &amp; Dues</text></svg>